<svg width="42" height="42" viewBox="0 0 42 42" fill="none" xmlns="http://www.w3.org/2000/svg">
<path d="M5.30403 13.6079C4.79052 14.652 3.51576 15.0858 2.47166 14.5732C1.4285 14.0597 0.993769 12.7849 1.50633 11.7418C2.82665 9.05367 4.70699 6.66836 7.02017 4.76619C9.33334 2.86401 12.0148 1.49149 14.9051 0.71695C19.6112 -0.543573 24.5621 -0.133523 28.9967 1.88066C33.4228 3.89104 37.0307 7.36981 39.1701 11.7418C39.6837 12.7916 39.247 14.0635 38.1963 14.577C37.1465 15.0896 35.8755 14.6539 35.362 13.6041C33.6553 10.1149 30.7803 7.33659 27.2474 5.73246C23.7069 4.12454 19.7573 3.80941 16.0033 4.81555C13.6949 5.43442 11.5506 6.52693 9.70447 8.04564C7.85925 9.56339 6.35668 11.4656 5.30403 13.6088" fill="url(#paint0_linear_4013_14)"/>
<path d="M39.2485 19.4729C38.0782 19.4359 37.0996 20.3557 37.0625 21.5251C37.0293 22.5559 36.9012 23.582 36.6781 24.5881C36.456 25.5962 36.1447 26.5833 35.7403 27.5334C34.7437 29.8713 33.2202 31.9595 31.3019 33.6263C31.1007 33.8009 30.8957 33.9699 30.6878 34.1341C31.2004 35.4241 31.4832 36.8308 31.4832 38.3029V38.751C32.3944 38.1805 33.262 37.5379 34.0812 36.8279C36.4864 34.7387 38.3848 32.1161 39.633 29.186C40.1398 27.9985 40.5404 26.7656 40.8185 25.5041C41.0976 24.2407 41.2599 22.9527 41.3016 21.6599C41.3386 20.4895 40.4179 19.51 39.2485 19.4729ZM32.6801 17.735C31.805 14.4679 29.6864 11.7076 26.7572 10.0162C23.829 8.32566 20.3787 7.871 17.1106 8.74615C13.8435 9.6213 11.0833 11.7399 9.3918 14.6691C7.7013 17.5983 7.24663 21.0476 8.12179 24.3157C8.60777 26.1296 9.48482 27.8059 10.6998 29.2382C11.1886 29.8143 11.7278 30.3449 12.3096 30.8233C13.2654 29.7868 14.5981 28.8253 15.8899 28.2007C15.1562 27.7394 14.4946 27.1661 13.9318 26.5017C13.1221 25.5458 12.5441 24.4258 12.2194 23.2175C11.6366 21.04 11.9385 18.7421 13.0661 16.7905C14.1928 14.838 16.0314 13.4276 18.2088 12.8438C20.3863 12.2601 22.6842 12.5628 24.6358 13.6895C26.5883 14.8172 27.9987 16.6557 28.5825 18.8332C29.0523 20.5844 28.9584 22.424 28.2949 24.1135C27.6343 25.7945 26.4535 27.2307 24.9243 28.195C26.2114 28.7759 27.5393 29.7859 28.5265 30.7977C30.1676 29.4328 31.4453 27.6654 32.2312 25.6664C33.2269 23.1311 33.3854 20.3671 32.6801 17.735ZM28.7553 35.4468C28.3091 34.1474 27.565 32.9837 26.6063 32.0373C26.611 32.0373 26.6158 32.0345 26.6205 32.0326C25.0866 30.5481 22.9491 29.5609 20.6701 29.4973C20.5932 29.4954 20.5153 29.4945 20.4385 29.4945C20.3825 29.4945 20.3265 29.4945 20.2705 29.4964C20.2363 29.4964 20.2031 29.4973 20.1689 29.4992C20.1053 29.4992 20.0426 29.503 19.98 29.5068C19.9734 29.5068 19.9667 29.5068 19.9601 29.5068C19.8965 29.5097 19.8329 29.5144 19.7702 29.5191C19.6886 29.5248 19.6079 29.5324 19.5263 29.541C19.4617 29.5476 19.3972 29.5552 19.3327 29.5628C19.3175 29.5647 19.3023 29.5676 19.2861 29.5695C19.2178 29.578 19.1495 29.5884 19.0811 29.5989C19.0109 29.6093 18.9406 29.6217 18.8704 29.634C18.8134 29.6444 18.7565 29.6558 18.6986 29.6672C18.654 29.6767 18.6103 29.6862 18.5667 29.6957C18.5164 29.7061 18.466 29.7175 18.4167 29.7299C18.2667 29.765 18.1186 29.8049 17.9706 29.8485C16.525 30.2738 15.2303 31.0644 14.1956 32.1114C13.2503 33.0682 12.5213 34.2376 12.0903 35.5399C12.0828 35.5351 12.0742 35.5313 12.0666 35.5266C11.7951 36.416 11.649 37.3632 11.649 38.3457V40.1206C14.3475 41.3498 17.3033 42 20.3407 42C23.3781 42 26.444 41.3328 29.2279 40.0286V38.302C29.2279 37.3025 29.0647 36.341 28.7619 35.4421C28.76 35.4421 28.7572 35.4449 28.7553 35.4459V35.4468ZM24.1821 24.8662C25.1654 23.8829 25.7738 22.5246 25.7738 21.0239C25.7738 19.5232 25.1654 18.165 24.1821 17.1825C23.1997 16.1992 21.8414 15.5908 20.3407 15.5908C18.84 15.5908 17.4817 16.1992 16.4984 17.1825C15.516 18.165 14.9066 19.5242 14.9066 21.0239C14.9066 22.5236 15.516 23.8829 16.4984 24.8662C17.4817 25.8496 18.84 26.458 20.3407 26.458C21.8414 26.458 23.1997 25.8496 24.1821 24.8662ZM4.17031 25.3095C3.86657 24.1781 2.70382 23.507 1.57238 23.8098C0.440951 24.1135 -0.230126 25.2763 0.0726656 26.4077C1.47177 31.6301 4.79488 36.0667 9.3937 38.8763V38.3466C9.3937 36.8981 9.64713 35.5095 10.1084 34.2271C7.21626 31.9994 5.12805 28.886 4.17031 25.3095ZM24.1821 17.1825C23.1997 16.1992 21.8414 15.5908 20.3407 15.5908C18.84 15.5908 17.4817 16.1992 16.4984 17.1825C15.516 18.165 14.9066 19.5242 14.9066 21.0239C14.9066 22.5236 15.516 23.8829 16.4984 24.8662C17.4817 25.8496 18.84 26.458 20.3407 26.458C21.8414 26.458 23.1997 25.8496 24.1821 24.8662C25.1654 23.8829 25.7738 22.5246 25.7738 21.0239C25.7738 19.5232 25.1654 18.165 24.1821 17.1825ZM24.1821 17.1825C23.1997 16.1992 21.8414 15.5908 20.3407 15.5908C18.84 15.5908 17.4817 16.1992 16.4984 17.1825C15.516 18.165 14.9066 19.5242 14.9066 21.0239C14.9066 22.5236 15.516 23.8829 16.4984 24.8662C17.4817 25.8496 18.84 26.458 20.3407 26.458C21.8414 26.458 23.1997 25.8496 24.1821 24.8662C25.1654 23.8829 25.7738 22.5246 25.7738 21.0239C25.7738 19.5232 25.1654 18.165 24.1821 17.1825Z" fill="url(#paint1_linear_4013_14)"/>
<defs>
<linearGradient id="paint0_linear_4013_14" x1="-0.553565" y1="24.301" x2="-14.8204" y2="-17.8566" gradientUnits="userSpaceOnUse">
<stop offset="0.145" stop-color="#6174FF"/>
<stop offset="1" stop-color="#FF99EF"/>
</linearGradient>
<linearGradient id="paint1_linear_4013_14" x1="-2" y1="63.6574" x2="-52.5351" y2="-7.42993" gradientUnits="userSpaceOnUse">
<stop offset="0.145" stop-color="#6174FF"/>
<stop offset="1" stop-color="#FF99EF"/>
</linearGradient>
</defs>
</svg>
